 <svg  version="1.0" xmlns="http://www.w3.org/2000/svg"  width="450.000000pt" height="252.000000pt" viewBox="0 0 450.000000 252.000000"  preserveAspectRatio="xMidYMid meet">  <g transform="translate(0.000000,252.000000) scale(0.100000,-0.100000)" fill="#aa2727" stroke="none"> <path d="M1910 1260 c0 -1106 2 -1260 15 -1260 13 0 15 90 16 713 1 391 0 719 -1 727 -1 8 -4 255 -6 548 -3 329 -8 532 -14 532 -6 0 -10 -463 -10 -1260z"/> <path d="M3035 2509 c-106 -31 -127 -174 -50 -332 22 -45 33 -57 52 -57 20 0 23 -5 23 -34 0 -38 -23 -61 -95 -90 -60 -26 -85 -53 -84 -95 0 -20 4 -44 8 -54 6 -16 9 -16 31 8 20 21 21 25 6 25 -9 0 -15 4 -12 9 4 5 0 11 -6 14 -34 11 103 110 140 100 14 -3 22 -1 22 7 0 7 7 10 15 6 18 -7 34 22 18 33 -23 14 -24 49 -2 70 13 12 25 21 29 21 3 0 14 15 25 33 l19 32 -42 -37 c-41 -37 -73 -46 -101 -29 -8 5 -11 16 -8 25 4 9 1 16 -6 16 -22 0 17 20 41 20 12 0 22 3 22 8 0 4 -18 6 -40 4 -34 -3 -39 -1 -34 12 3 9 10 13 15 10 5 -3 9 0 9 6 0 7 -8 9 -21 5 -19 -6 -20 -4 -14 37 6 40 4 46 -19 61 -21 14 -25 22 -19 50 8 46 19 55 78 73 l53 15 34 -33 c45 -43 69 -83 62 -102 -7 -19 0 -20 26 -6 28 15 46 -21 30 -61 -7 -16 -16 -30 -21 -30 -5 -1 -13 -2 -18 -3 -18 -2 -24 -16 -8 -16 12 0 17 -9 17 -30 0 -48 25 -97 59 -115 17 -8 31 -13 31 -11 0 3 -9 42 -20 88 -11 47 -20 118 -20 164 0 66 -5 89 -26 132 -22 44 -29 51 -52 50 -15 -1 -47 1 -72 4 -25 4 -59 2 -75 -3z"/> <path d="M4387 2098 c2 -233 3 -800 3 -1261 0 -548 4 -837 10 -837 7 0 10 431 10 1260 0 1001 -3 1260 -12 1260 -10 0 -12 -90 -11 -422z"/> <path d="M165 2396 c-16 -12 -44 -82 -45 -111 0 -19 54 -42 113 -48 32 -3 57 -2 57 4 0 5 -16 9 -35 9 -19 0 -35 5 -35 10 0 7 -7 7 -21 -1 -15 -8 -19 -8 -15 0 4 6 2 12 -3 12 -6 1 -15 3 -21 4 -5 1 -14 3 -19 4 -10 1 7 80 22 99 11 14 47 16 47 2 0 -5 -9 -10 -20 -10 -17 0 -20 -6 -18 -35 2 -31 4 -34 26 -28 15 3 27 1 33 -8 7 -11 9 -10 9 5 0 14 6 17 25 14 14 -3 25 -2 25 2 0 11 -30 21 -41 14 -6 -3 -21 -7 -35 -9 -28 -3 -33 21 -7 40 18 14 12 45 -10 45 -7 0 -22 -6 -32 -14z"/> <path d="M234 2389 c-3 -6 1 -18 10 -27 15 -15 17 -15 32 0 19 19 11 38 -16 38 -10 0 -22 -5 -26 -11z"/> <path d="M3048 2373 c-19 -5 -25 -23 -7 -23 6 0 8 -8 4 -19 -9 -28 8 -33 46 -14 l34 17 -28 11 c-21 9 -24 14 -15 23 13 13 2 15 -34 5z"/> <path d="M810 2285 c0 -19 4 -35 10 -35 5 0 7 7 4 15 -4 10 0 15 11 15 11 0 15 -5 11 -15 -3 -8 -1 -15 4 -15 6 0 10 16 10 35 0 19 -5 35 -11 35 -6 0 -9 -7 -5 -15 3 -9 0 -15 -9 -15 -9 0 -12 6 -9 15 4 8 1 15 -5 15 -6 0 -11 -16 -11 -35z"/> <path d="M1160 2275 l0 -34 75 2 c68 1 75 3 76 22 0 19 1 19 9 -2 5 -13 15 -23 22 -23 9 0 9 3 0 12 -15 15 -16 32 -2 23 6 -3 10 -2 10 3 0 5 -21 9 -47 8 -36 -1 -48 -6 -54 -21 -8 -20 -8 -20 -8 0 -1 11 -13 25 -28 33 -43 20 -53 15 -53 -23z m60 -8 c0 -7 -9 -13 -20 -14 -11 -1 -20 2 -20 8 0 5 6 9 13 10 10 0 10 2 0 6 -7 2 -13 9 -13 14 0 6 8 5 20 -1 11 -6 20 -16 20 -23z"/> <path d="M1361 2278 l-1 -38 58 3 c57 3 62 5 62 31 0 15 -43 16 -57 3 -11 -11 -25 -8 -17 4 4 7 0 9 -14 5 -15 -5 -22 -2 -25 11 -3 10 -5 1 -6 -19z"/> <path d="M873 2284 c-3 -7 -2 -18 2 -23 10 -17 48 -6 56 15 7 17 8 16 9 -6 l2 -25 8 25 8 25 2 -25 c1 -14 4 -19 7 -12 4 9 8 10 18 2 10 -8 15 -8 21 1 4 8 3 9 -4 5 -7 -4 -12 -3 -12 3 0 5 6 11 13 14 6 2 9 8 5 12 -4 4 -14 2 -23 -5 -10 -9 -15 -9 -15 -1 0 16 -91 11 -97 -5z"/> <path d="M800 2230 c0 -6 44 -10 111 -10 71 0 108 4 104 10 -3 6 -52 10 -111 10 -63 0 -104 -4 -104 -10z"/> <path d="M3197 2039 c-15 -12 -48 -29 -72 -38 -43 -16 -47 -21 -101 -133 l-57 -115 8 -78 7 -78 68 7 c51 4 71 3 77 -7 14 -21 63 -48 76 -41 7 4 9 4 5 -1 -4 -4 -4 -13 1 -19 5 -6 12 -28 16 -48 6 -31 4 -38 -9 -38 -23 0 -76 56 -76 80 0 19 -7 20 -111 20 l-111 0 7 -52 c7 -52 26 -93 38 -82 3 3 1 17 -4 31 -12 33 -9 35 48 37 26 1 54 5 61 9 6 5 17 5 22 2 15 -10 -8 -36 -29 -33 -12 2 -17 -7 -19 -34 -3 -36 9 -50 23 -28 7 12 25 4 25 -11 0 -5 -11 -9 -25 -9 -21 0 -25 -5 -25 -31 0 -29 -1 -30 -32 -24 -39 8 -54 20 -39 29 18 12 12 24 -9 19 -10 -3 -19 -8 -18 -12 0 -3 0 -13 -1 -21 -1 -12 -3 -12 -10 -2 -5 8 -6 34 -3 58 5 48 4 49 -47 33 -20 -7 -42 -14 -50 -16 -11 -3 -12 -6 -3 -15 16 -16 15 -65 0 -74 -6 -4 -14 -2 -16 4 -2 8 -21 10 -55 6 -63 -6 -92 8 -63 31 11 8 28 15 38 15 10 0 18 5 18 10 0 6 -19 10 -42 10 l-43 0 0 -42 0 -43 -55 -11 c-39 -8 -50 -13 -38 -19 10 -4 15 -11 12 -16 -3 -5 4 -25 16 -44 12 -19 19 -39 16 -44 -3 -5 3 -7 13 -4 19 5 19 6 -2 55 -16 39 -18 51 -8 58 17 10 265 21 365 15 54 -3 90 1 113 10 18 8 33 15 33 17 0 8 -29 105 -35 121 -6 14 -2 17 28 17 34 0 35 -2 47 -50 7 -27 16 -50 20 -50 4 0 13 14 20 30 13 33 37 50 67 50 15 0 18 7 15 50 -2 27 -8 48 -12 45 -15 -9 -125 65 -126 85 -2 25 -22 50 -41 50 -10 0 -12 -6 -8 -20 4 -12 2 -20 -5 -20 -17 0 -22 24 -13 76 8 47 10 49 38 47 l30 -2 -30 9 c-37 12 -55 6 -55 -18 0 -10 -5 -23 -12 -30 -6 -6 -11 -26 -10 -44 0 -21 -2 -27 -8 -19 -6 11 -10 9 -19 -8 -7 -11 -16 -21 -21 -21 -15 0 -12 26 5 40 9 8 13 23 10 39 -11 63 69 245 118 269 15 7 27 17 27 22 0 5 15 14 34 20 38 12 69 40 45 40 -8 0 -27 -10 -42 -21z"/> <path d="M3284 2032 c-28 -28 -149 -230 -142 -237 2 -2 19 -6 39 -10 33 -6 37 -4 43 18 10 43 105 237 115 237 5 0 22 -5 37 -10 34 -13 43 -6 13 10 -45 25 -75 22 -105 -8z"/> <path d="M3453 1970 c25 -35 68 -126 62 -132 -1 -2 6 -12 16 -22 31 -31 -41 120 -74 157 l-28 32 24 -35z"/> <path d="M3001 1957 c-5 -13 -27 -62 -49 -108 -23 -46 -44 -96 -47 -111 -11 -44 -28 -21 -21 28 7 53 0 56 -19 10 -16 -38 -10 -72 26 -136 29 -51 55 -51 51 0 -9 120 -7 131 46 231 29 53 52 99 52 102 0 18 -32 4 -39 -16z"/> <path d="M3300 1842 c0 -7 -4 -10 -10 -7 -5 3 -7 0 -4 -8 3 -8 17 -20 31 -26 22 -10 24 -16 21 -54 -3 -23 -12 -59 -21 -79 -9 -20 -13 -39 -8 -42 5 -3 21 28 36 69 15 41 30 75 34 75 3 0 19 -21 35 -48 17 -26 42 -63 58 -83 26 -35 32 -37 84 -38 63 0 104 -21 104 -51 0 -11 5 -20 11 -20 7 0 9 9 5 23 -3 12 -6 25 -6 28 0 14 -76 42 -106 41 -35 -3 -63 21 -110 91 -53 79 -132 153 -118 110 4 -12 -1 -10 -15 7 -11 14 -21 19 -21 12z"/> <path d="M3243 1793 c9 -2 25 -2 35 0 9 3 1 5 -18 5 -19 0 -27 -2 -17 -5z"/> <path d="M3559 1775 c5 -11 17 -29 26 -40 16 -20 16 -20 6 0 -5 11 -17 29 -26 40 -16 20 -16 20 -6 0z"/> <path d="M3230 1760 c-24 -15 -8 -17 30 -4 30 11 32 13 10 13 -14 1 -32 -3 -40 -9z"/> <path d="M3243 1733 c-26 -5 -31 -39 -11 -76 11 -21 11 -21 19 -2 13 33 10 53 -8 58 -14 4 -12 5 5 6 12 0 22 6 22 11 0 6 -1 9 -2 9 -2 -1 -13 -4 -25 -6z"/> <path d="M3380 1585 c13 -14 25 -25 27 -25 2 0 -4 11 -13 25 -9 14 -21 25 -27 25 -6 0 0 -11 13 -25z"/> <path d="M3363 1543 c6 -27 -8 -30 -22 -5 -6 9 -11 12 -11 5 0 -7 -7 -10 -15 -7 -8 4 -15 2 -15 -4 0 -6 17 -16 38 -22 20 -6 43 -14 51 -16 11 -4 10 -8 -4 -24 -18 -20 -17 -20 78 -20 110 0 117 -5 124 -88 5 -66 -4 -72 -116 -74 -77 -1 -86 -2 -46 -7 46 -6 43 -7 -49 -15 -109 -9 -145 -3 -161 31 -8 15 -15 19 -26 13 -11 -8 -12 -13 -1 -30 7 -12 8 -20 2 -20 -5 0 -10 5 -10 11 0 7 -7 8 -17 3 -10 -4 -34 -9 -53 -10 -47 -3 -47 -3 -31 -13 7 -5 15 -25 16 -46 1 -20 11 -45 21 -55 19 -19 19 -19 31 5 9 20 8 25 -2 25 -12 0 -29 39 -21 48 2 2 30 7 62 11 72 10 122 -5 101 -31 -23 -30 -109 -88 -129 -88 -28 0 -17 -24 13 -28 18 -2 45 14 102 63 76 65 128 95 164 95 12 0 14 -3 6 -8 -9 -5 -9 -18 0 -49 21 -80 -25 -168 -114 -217 l-55 -30 -62 15 c-49 12 -59 13 -51 2 7 -7 24 -13 40 -13 16 0 29 -2 29 -5 0 -12 -44 -92 -74 -135 -17 -25 -35 -52 -41 -61 -5 -9 -34 -54 -63 -100 -69 -109 -110 -218 -133 -354 -17 -97 -45 -205 -54 -205 -1 0 -23 9 -48 20 l-45 20 24 59 c13 33 33 106 45 163 11 56 30 130 41 163 25 76 95 211 152 295 25 36 59 89 76 118 l32 52 -41 46 c-41 46 -48 73 -42 143 5 57 -4 66 -64 66 -55 0 -56 -1 -51 -25 4 -14 10 -65 15 -113 5 -49 12 -91 15 -94 3 -3 -4 -19 -15 -34 -33 -47 -96 -189 -114 -259 -9 -36 -32 -119 -50 -185 -18 -66 -38 -150 -43 -186 -6 -39 -32 -118 -66 -199 -31 -73 -54 -135 -51 -138 2 -3 19 27 36 66 18 40 37 72 43 72 19 0 76 -39 76 -52 0 -9 15 -13 45 -13 l45 0 21 55 c12 30 28 91 36 135 28 144 43 184 108 279 49 71 62 98 58 118 -3 14 0 34 5 45 10 17 11 17 17 1 6 -14 11 -9 29 25 11 23 33 48 48 55 32 15 70 60 62 73 -3 5 -10 7 -15 4 -13 -9 -11 7 5 28 12 16 66 25 66 10 0 -3 -8 -15 -17 -25 -16 -18 -15 -23 17 -101 40 -99 130 -257 197 -346 51 -69 103 -154 103 -169 0 -9 -78 -48 -83 -41 -1 2 -14 27 -29 55 -14 28 -68 115 -120 195 -52 79 -114 180 -138 223 l-43 80 -16 -25 c-9 -13 -28 -37 -43 -54 l-26 -30 21 -30 c11 -16 39 -50 62 -75 24 -25 59 -70 79 -99 21 -30 46 -61 56 -68 10 -7 40 -48 66 -91 66 -110 214 -302 232 -302 13 0 13 3 -2 19 -16 18 -15 20 31 46 26 16 48 24 50 19 9 -28 41 -78 52 -82 7 -2 -12 42 -42 99 -31 57 -61 124 -67 149 -18 69 -53 128 -128 217 -38 45 -81 109 -96 143 -37 82 -98 298 -91 321 4 11 18 21 33 24 130 26 296 99 333 147 34 43 65 104 74 146 5 26 3 32 -10 32 -14 0 -14 4 4 26 29 37 27 85 -4 123 -35 41 -74 51 -185 49 -115 -2 -192 19 -216 60 -13 24 -15 24 -11 5z m319 -93 c43 0 78 -40 78 -87 0 -62 -20 -81 -90 -85 l-60 -3 7 35 c13 59 9 111 -10 125 -26 19 -20 28 14 21 17 -3 45 -6 61 -6z m-139 -207 c-3 -12 9 -17 30 -14 4 0 7 -3 7 -8 0 -13 70 -101 80 -101 6 0 10 10 9 23 0 14 -15 33 -42 52 -58 42 -61 65 -8 65 31 0 41 -4 46 -20 5 -15 12 -19 26 -15 13 4 19 2 19 -9 0 -18 8 -20 29 -7 7 5 10 14 7 20 -4 6 -1 11 8 11 23 0 -12 -80 -40 -90 -13 -5 -33 -23 -45 -40 -15 -20 -26 -27 -33 -20 -14 14 -26 12 -26 -5 0 -21 -20 -19 -21 3 -1 16 -2 16 -6 -1 -4 -16 -6 -15 -23 5 -11 13 -19 18 -20 11 0 -6 5 -15 10 -18 15 -9 2 -25 -19 -25 -10 0 -21 -9 -24 -20 -12 -47 -47 -1 -47 62 0 26 2 29 16 17 13 -11 14 -9 8 17 -4 16 -10 36 -15 45 -9 18 -1 61 15 72 17 11 61 4 59 -10z m-515 -143 c7 -47 15 -68 39 -93 24 -25 29 -37 23 -53 -13 -32 -27 -37 -56 -18 -21 14 -25 23 -20 46 4 19 1 28 -8 28 -10 0 -12 20 -11 83 2 45 3 87 4 92 4 24 22 -28 29 -85z m-4 -196 c29 -30 33 -49 12 -57 -15 -6 -73 -89 -87 -124 -5 -13 -13 -23 -19 -23 -5 0 -10 -5 -10 -11 0 -5 -13 -38 -28 -72 -41 -90 -54 -129 -53 -157 1 -28 -17 -80 -29 -80 -12 0 -19 26 -13 52 16 73 113 385 130 418 7 14 13 34 13 46 0 11 3 24 7 27 14 15 52 6 77 -19z m192 -211 c7 -10 14 -31 14 -46 0 -36 -24 -33 -48 5 -13 22 -13 29 -3 42 17 20 21 20 37 -1z m84 -131 c23 -51 8 -57 -35 -12 -24 25 -26 32 -15 45 18 22 28 16 50 -33z m80 -129 c11 -18 16 -33 13 -33 -16 0 -83 76 -83 94 0 18 1 18 25 -4 14 -13 34 -39 45 -57z m-576 -98 c13 -14 12 -21 -9 -68 -14 -28 -25 -60 -25 -69 0 -40 -29 -64 -45 -38 -7 11 17 86 41 132 8 14 14 33 14 42 0 20 5 20 24 1z m684 -77 c17 -27 27 -48 22 -48 -9 0 -60 80 -60 95 0 10 -1 11 38 -47z m167 -67 c16 -32 32 -111 20 -99 -4 4 -16 -4 -27 -17 l-20 -25 -49 62 c-27 35 -49 66 -49 69 0 10 51 30 61 24 5 -4 9 -1 9 4 0 24 40 10 55 -18z"/> <path d="M3521 1172 c51 -55 59 -61 52 -32 -3 12 -12 24 -20 27 -8 3 -18 15 -23 27 -4 12 -18 22 -30 23 -19 2 -16 -4 21 -45z"/> <path d="M3510 1093 c0 -13 5 -23 10 -23 13 0 13 11 0 30 -8 12 -10 11 -10 -7z"/> <path d="M2427 1501 c-3 -14 -1 -18 9 -14 8 3 14 11 14 19 0 21 -17 17 -23 -5z"/> <path d="M2366 1482 c-4 -7 -5 -16 -1 -21 3 -5 1 -12 -5 -16 -6 -4 -2 -15 10 -27 11 -12 19 -29 18 -37 -2 -9 3 -16 10 -17 25 -3 27 -5 13 -13 -7 -5 -10 -14 -7 -20 4 -6 11 -9 16 -6 4 3 6 -5 2 -17 -4 -17 -2 -20 12 -15 11 5 16 3 14 -5 -2 -6 2 -19 10 -27 8 -9 28 -41 46 -73 l31 -56 35 19 c32 17 32 18 7 13 -33 -8 -60 11 -52 37 4 11 2 19 -5 19 -6 0 -8 -4 -5 -10 3 -5 4 -10 0 -10 -3 0 -15 21 -25 46 -11 26 -29 59 -41 75 -15 22 -18 37 -13 64 l6 36 20 -21 c11 -11 21 -29 23 -40 5 -24 36 -72 43 -65 6 6 -39 107 -52 116 -13 10 3 29 25 29 12 0 23 -10 29 -25 5 -14 13 -25 18 -25 5 0 15 -11 22 -25 9 -17 22 -25 41 -25 36 0 46 16 14 24 -14 4 -25 11 -25 16 0 6 -11 15 -25 20 -14 5 -31 23 -38 39 l-12 29 -50 -23 c-28 -13 -55 -24 -60 -24 -6 -1 -17 15 -26 36 -10 22 -19 32 -23 25z"/> <path d="M3267 1423 c-4 -3 3 -11 16 -17 12 -6 29 -26 39 -44 24 -48 28 -50 28 -9 0 24 -7 44 -20 57 -20 20 -50 26 -63 13z"/> <path d="M2777 1384 c9 -15 19 -21 21 -15 4 13 -16 41 -29 41 -5 0 -2 -12 8 -26z"/> <path d="M3272 1353 c4 -21 33 -25 33 -3 0 8 -8 16 -18 18 -14 3 -18 -1 -15 -15z"/> <path d="M230 1325 c0 -19 5 -35 10 -35 6 0 10 6 10 14 0 8 8 17 18 19 16 4 16 5 0 6 -10 0 -18 5 -18 10 0 5 8 12 18 14 10 3 6 5 -10 6 -25 1 -28 -2 -28 -34z"/> <path d="M290 1325 c0 -19 5 -35 10 -35 6 0 10 16 8 35 -1 19 -6 35 -10 35 -4 0 -8 -16 -8 -35z"/> <path d="M320 1327 c0 -20 4 -37 9 -37 10 0 9 55 -2 66 -4 4 -7 -9 -7 -29z"/> <path d="M594 1346 c-11 -28 1 -51 25 -51 14 0 26 5 28 12 3 7 -3 9 -17 6 -18 -5 -21 -2 -18 13 2 12 11 18 22 16 11 -2 15 1 11 7 -9 16 -45 13 -51 -3z"/> <path d="M660 1325 c0 -19 5 -35 10 -35 6 0 10 16 10 35 0 19 -4 35 -10 35 -5 0 -10 -16 -10 -35z"/> <path d="M743 1328 c3 -35 32 -52 47 -27 11 16 1 39 -16 39 -8 0 -14 5 -14 10 0 6 -4 10 -10 10 -5 0 -9 -15 -7 -32z"/> <path d="M363 1343 c-7 -3 -13 -16 -13 -29 0 -15 4 -23 10 -19 6 4 8 10 5 15 -3 5 -1 11 5 15 5 3 10 -3 10 -14 0 -12 5 -21 10 -21 6 0 10 6 10 13 0 8 3 8 9 -2 12 -19 41 -6 41 18 0 24 -29 36 -37 15 -5 -13 -8 -13 -22 -1 -9 8 -22 12 -28 10z"/> <path d="M474 1342 c-5 -4 -11 -17 -11 -29 -1 -17 4 -23 18 -23 10 0 19 7 19 15 0 8 -6 15 -12 15 -10 0 -9 3 1 9 7 5 9 11 4 14 -5 3 -13 3 -19 -1z"/> <path d="M523 1342 c-19 -12 -9 -47 13 -47 13 0 18 6 16 20 -5 27 -15 36 -29 27z"/> <path d="M691 1318 c-1 -22 4 -28 19 -28 15 0 20 6 19 28 -1 16 -3 20 -6 10 -2 -10 -8 -18 -13 -18 -5 0 -11 8 -13 18 -3 10 -5 6 -6 -10z"/> <path d="M3250 1330 c0 -6 7 -13 15 -17 24 -9 27 1 5 15 -13 8 -20 8 -20 2z"/> <path d="M3957 1329 c-9 -6 -43 -12 -74 -15 -73 -6 -90 -11 -76 -25 17 -17 139 1 159 22 20 23 16 31 -9 18z"/> <path d="M247 1084 c-4 -4 -7 -17 -7 -30 0 -17 7 -24 30 -29 31 -7 38 -19 20 -30 -6 -4 -17 -1 -25 5 -23 19 -41 7 -21 -13 21 -21 46 -22 71 -3 25 18 13 44 -25 57 -40 14 -39 33 1 25 22 -4 29 -2 27 7 -5 13 -60 22 -71 11z"/> <path d="M649 1073 c-6 -68 11 -117 32 -96 8 8 8 13 0 17 -15 10 -14 43 2 50 10 5 10 7 0 12 -7 3 -13 12 -13 20 0 20 -20 17 -21 -3z"/> <path d="M797 1083 c-18 -18 -5 -45 29 -59 28 -12 34 -18 25 -27 -9 -9 -17 -8 -32 1 -25 16 -37 8 -19 -13 16 -19 54 -19 70 0 19 23 8 48 -28 57 -17 5 -32 13 -32 18 0 13 37 13 45 0 4 -6 11 -8 16 -4 17 10 -11 34 -41 34 -14 0 -30 -3 -33 -7z"/> <path d="M1082 1035 c2 -30 8 -55 13 -55 6 0 11 25 13 55 2 45 0 55 -13 55 -13 0 -15 -10 -13 -55z"/> <path d="M3110 1080 c8 -5 29 -9 45 -9 26 0 27 2 10 9 -11 5 -31 9 -45 9 -20 1 -22 -1 -10 -9z"/> <path d="M340 1053 c0 -5 5 -25 11 -46 12 -44 31 -44 40 -1 l5 29 8 -33 c10 -43 26 -37 41 16 11 35 11 42 -1 42 -8 0 -14 -9 -14 -20 0 -11 -4 -20 -10 -20 -5 0 -10 9 -10 20 0 32 -30 24 -31 -7 l-1 -28 -11 28 c-10 25 -27 37 -27 20z"/> <path d="M470 1040 c-24 -45 25 -91 59 -55 15 16 14 17 -11 11 -17 -4 -28 -2 -28 4 0 5 12 10 26 10 21 0 25 4 22 23 -4 31 -52 36 -68 7z"/> <path d="M560 1044 c0 -11 6 -14 23 -9 18 5 17 3 -5 -10 -26 -14 -38 -43 -20 -46 63 -9 72 -7 72 21 0 46 -10 60 -41 60 -20 0 -29 -5 -29 -16z"/> <path d="M900 1015 c0 -25 5 -45 10 -45 6 0 10 16 10 35 0 25 4 35 16 35 11 0 14 -8 12 -32 -2 -18 2 -33 10 -35 8 -3 12 7 12 31 0 44 18 48 22 4 2 -17 9 -33 16 -36 10 -3 12 7 10 39 l-3 44 -57 3 -58 2 0 -45z"/> <path d="M1040 1015 c0 -25 5 -45 10 -45 6 0 10 20 10 45 0 25 -4 45 -10 45 -5 0 -10 -20 -10 -45z"/> <path d="M1131 1046 c-29 -34 11 -86 53 -70 26 10 19 27 -9 20 -14 -4 -25 -2 -25 4 0 5 12 10 26 10 21 0 25 4 22 23 -4 27 -48 36 -67 13z"/> <path d="M3350 1052 c0 -5 7 -13 16 -16 10 -4 14 -1 12 6 -5 15 -28 23 -28 10z"/> <path d="M704 975 c1 -28 11 -33 20 -9 9 24 7 34 -8 34 -9 0 -13 -10 -12 -25z"/> <path d="M273 848 c-6 -7 -17 -34 -26 -60 -14 -41 -14 -48 -1 -48 8 0 14 5 14 10 0 6 11 10 25 10 14 0 25 -4 25 -10 0 -5 7 -10 16 -10 11 0 14 5 9 18 -4 9 -14 36 -22 60 -16 44 -24 50 -40 30z m27 -60 c0 -5 -7 -8 -15 -8 -17 0 -18 2 -9 25 5 13 8 14 15 3 5 -7 9 -16 9 -20z"/> <path d="M505 850 c-3 -5 -3 -15 1 -21 4 -7 0 -9 -13 -5 -26 8 -45 -15 -41 -51 3 -24 8 -28 41 -31 l37 -3 0 60 c0 56 -10 76 -25 51z m1 -79 c-11 -18 -36 -13 -36 7 0 10 3 22 7 26 10 10 37 -20 29 -33z"/> <path d="M600 857 c-1 -1 -2 -28 -3 -59 -1 -41 2 -58 10 -58 7 0 13 9 13 20 0 13 7 20 20 20 13 0 20 -7 20 -20 0 -11 6 -20 14 -20 11 0 14 13 13 49 -1 27 -6 53 -10 57 -6 7 -76 17 -77 11z m65 -42 c0 -5 -10 -11 -22 -13 -16 -2 -23 2 -23 13 0 11 7 15 23 13 12 -2 22 -7 22 -13z"/> <path d="M1072 830 c-7 -12 -8 -20 -2 -20 5 0 10 -16 10 -35 0 -29 4 -35 21 -35 18 0 19 2 9 15 -7 8 -10 27 -7 42 9 49 -9 68 -31 33z"/> <path d="M3092 825 c6 -14 15 -25 20 -25 11 0 10 7 -2 31 -16 28 -32 23 -18 -6z"/> <path d="M355 821 c-3 -2 -5 -22 -5 -43 0 -49 27 -54 32 -5 2 17 8 32 13 32 6 0 11 -15 13 -32 5 -49 24 -40 20 10 -3 40 -4 42 -36 42 -18 1 -35 -1 -37 -4z"/> <path d="M716 814 c-20 -19 -20 -48 -2 -64 18 -14 58 -10 64 8 3 9 -3 11 -22 6 -16 -4 -26 -2 -26 5 0 6 11 11 25 11 27 0 33 18 13 38 -16 16 -33 15 -52 -4z"/> <path d="M800 773 c0 -29 0 -56 -1 -60 0 -4 4 -9 10 -11 6 -2 11 6 11 17 0 16 6 21 25 21 18 0 26 7 31 24 9 37 -11 65 -46 64 -29 -1 -30 -2 -30 -55z m56 -2 c-11 -18 -36 -13 -36 7 0 10 3 22 7 26 10 10 37 -20 29 -33z"/> <path d="M901 816 c-7 -8 -11 -27 -9 -43 2 -23 8 -29 36 -31 22 -2 32 1 32 11 0 10 -8 13 -25 9 -15 -2 -25 0 -25 7 0 6 14 11 30 11 33 0 35 3 20 31 -13 22 -43 25 -59 5z"/> <path d="M989 814 c-13 -16 -12 -17 14 -10 15 3 27 2 27 -3 0 -5 -10 -11 -22 -13 -15 -2 -24 -11 -26 -25 -3 -21 1 -23 35 -23 l39 0 -5 43 c-5 33 -11 43 -27 45 -11 2 -27 -5 -35 -14z m41 -42 c0 -13 -12 -22 -22 -16 -10 6 -1 24 13 24 5 0 9 -4 9 -8z"/> <path d="M234 545 c-11 -27 4 -44 35 -43 21 1 31 6 32 17 0 14 1 14 7 0 7 -15 64 -20 78 -6 4 4 2 7 -4 7 -7 0 -12 5 -12 11 0 5 5 7 12 3 7 -5 8 -3 3 6 -6 10 -13 7 -27 -11 -14 -16 -18 -18 -14 -6 4 13 0 17 -19 17 -14 0 -25 5 -25 10 0 16 -60 12 -66 -5z m44 -4 c10 -6 10 -10 -3 -21 -18 -15 -42 0 -31 19 8 13 16 14 34 2z"/> <path d="M398 532 c5 -34 30 -39 28 -6 0 12 -4 20 -8 17 -5 -2 -8 1 -8 6 0 6 -4 11 -8 11 -5 0 -7 -13 -4 -28z"/> <path d="M599 534 c-1 -29 -1 -29 -9 -4 l-8 25 -1 -28 c-1 -26 1 -27 44 -25 36 1 45 5 45 19 0 22 -16 33 -25 19 -5 -8 -13 -6 -26 6 -18 16 -19 16 -20 -12z"/> <path d="M917 553 c-11 -10 -8 -53 3 -53 6 0 10 6 9 13 -4 30 4 39 11 12 8 -30 8 -30 9 -3 0 14 7 29 14 31 6 3 0 6 -14 6 -14 1 -29 -2 -32 -6z"/> <path d="M1739 533 c-1 -17 -3 -21 -6 -10 -5 20 -23 23 -23 5 0 -10 -3 -9 -9 1 -6 10 -33 13 -97 13 -49 0 -95 0 -101 -1 -8 -1 -13 -15 -13 -33 0 -30 1 -31 19 -14 11 10 24 15 30 12 5 -4 13 -1 17 5 4 8 3 9 -4 5 -7 -4 -12 -2 -12 3 0 18 28 12 33 -6 4 -16 5 -16 6 -2 1 20 28 33 28 13 0 -7 -4 -11 -9 -8 -4 3 -8 1 -8 -3 0 -5 49 -9 108 -11 l108 -2 2 27 1 28 -14 -25 c-11 -19 -14 -21 -15 -7 0 9 -5 17 -11 17 -5 0 -8 -4 -4 -9 3 -5 1 -12 -5 -16 -5 -3 -10 3 -10 14 0 11 8 22 18 24 13 4 11 5 -5 6 -18 1 -23 -5 -24 -26z"/> <path d="M1879 533 c-1 -19 -3 -22 -6 -10 -5 18 -6 18 -24 1 -11 -10 -19 -12 -19 -6 0 7 5 12 11 12 5 0 7 5 4 10 -9 15 -27 1 -23 -17 2 -9 16 -17 36 -19 30 -4 32 -2 32 26 0 38 -10 40 -11 3z"/> <path d="M463 543 c-16 -6 -17 -29 -3 -38 6 -4 17 -1 25 5 11 9 15 9 15 1 0 -6 7 -11 15 -11 9 0 15 9 14 23 0 21 -1 21 -9 2 -8 -19 -9 -19 -9 -1 -1 11 -4 16 -8 13 -3 -4 -11 -3 -17 2 -6 4 -17 6 -23 4z"/> <path d="M766 542 c-3 -5 -19 -7 -36 -4 -26 4 -30 1 -29 -19 0 -22 1 -23 9 -4 9 20 9 20 10 0 1 -20 1 -20 10 0 9 20 9 20 10 0 1 -11 4 -14 7 -7 2 6 10 9 16 5 7 -5 28 -8 48 -8 31 -1 37 3 37 22 0 13 -4 23 -9 23 -5 0 -9 -7 -9 -16 0 -8 -5 -12 -10 -9 -6 4 -7 12 -4 18 5 9 3 8 -6 0 -9 -9 -17 -9 -26 -2 -7 5 -15 6 -18 1z"/> <path d="M998 533 c-6 -7 -16 -13 -22 -13 -6 0 -4 5 4 10 13 8 12 10 -3 10 -12 0 -17 -6 -15 -17 2 -14 13 -18 46 -18 37 -1 42 2 42 22 0 16 -6 21 -21 20 -11 -1 -25 -7 -31 -14z"/> <path d="M1083 537 c2 -20 19 -25 26 -6 2 6 -1 9 -7 5 -6 -3 -13 0 -16 6 -3 7 -5 5 -3 -5z"/> <path d="M1127 544 c-11 -11 -8 -44 3 -44 15 0 24 30 13 41 -5 5 -12 6 -16 3z"/> <path d="M1181 541 c-22 -14 -7 -36 26 -37 25 0 31 4 31 22 0 15 -5 21 -14 17 -8 -3 -12 -9 -9 -13 3 -4 -2 -11 -11 -14 -12 -4 -14 -1 -9 14 7 22 6 23 -14 11z"/> <path d="M1252 532 c-7 -19 14 -37 23 -21 5 8 4 10 -3 5 -7 -4 -12 -2 -12 3 0 18 28 12 33 -6 4 -16 5 -15 6 1 1 20 1 20 15 0 8 -10 18 -15 22 -11 5 4 2 12 -6 17 -10 7 -11 10 -2 10 6 0 12 3 12 8 0 13 -82 8 -88 -6z"/> <path d="M1377 543 c-4 -3 -7 -14 -7 -23 0 -12 9 -17 30 -17 17 0 30 4 30 9 0 4 -6 8 -12 8 -9 0 -8 4 2 10 12 8 12 10 1 10 -8 0 -20 -8 -27 -17 -12 -17 -13 -16 -9 5 4 23 3 26 -8 15z"/> <path d="M1447 544 c-10 -11 -9 -44 2 -44 15 0 19 13 12 33 -4 10 -10 15 -14 11z"/> <path d="M872 523 c4 -24 24 -27 24 -3 0 11 -6 20 -14 20 -7 0 -12 -8 -10 -17z"/> <path d="M230 215 l0 -95 355 0 355 0 0 95 0 95 -355 0 -355 0 0 -95z m208 35 c14 -21 25 -25 62 -25 39 0 45 -3 48 -22 3 -20 0 -21 -63 -19 -51 1 -68 -2 -75 -14 -8 -13 -11 -13 -19 -1 -6 10 -24 14 -50 13 -41 -3 -41 -3 -41 33 0 22 -4 34 -10 30 -14 -8 -13 -41 2 -65 14 -22 6 -35 -17 -27 -11 5 -15 21 -15 62 0 47 3 55 19 55 10 0 22 -7 25 -15 3 -9 11 -15 18 -14 28 3 58 -14 59 -35 2 -19 2 -19 6 2 3 18 10 23 24 19 12 -3 19 0 19 8 0 8 -11 13 -28 13 -15 -1 -38 2 -51 7 -18 6 -21 9 -10 16 26 17 79 5 97 -21z m131 12 c5 -9 18 -17 28 -17 13 0 17 -6 15 -22 -2 -13 1 -23 7 -23 6 0 8 7 5 15 -4 9 0 15 10 15 10 0 16 -9 17 -22 0 -22 0 -22 9 -2 6 16 16 20 52 19 32 0 45 3 45 13 0 11 -13 13 -57 9 -55 -5 -90 4 -90 24 0 9 233 11 278 1 19 -4 22 -10 22 -58 0 -40 -4 -56 -15 -61 -24 -9 -30 4 -15 32 19 35 -4 56 -64 61 l-46 4 1 -32 c1 -24 3 -27 6 -10 4 22 23 32 23 11 0 -5 5 -7 12 -3 7 4 22 9 35 10 18 2 23 -2 23 -20 0 -21 -4 -23 -75 -24 -65 -2 -75 1 -76 16 -1 16 -2 16 -6 0 -3 -14 -17 -17 -74 -17 l-69 0 0 33 0 33 -57 2 c-94 4 -96 27 -2 30 36 0 51 -4 58 -17z"/> <path d="M2350 241 c14 -11 30 -21 35 -21 11 0 -7 14 -40 31 -13 7 -12 3 5 -10z"/> <path d="M3135 170 c-10 -11 -15 -20 -11 -20 14 0 46 21 46 30 0 16 -16 11 -35 -10z"/> </g> </svg> 