<?xml version="1.0" standalone="no"?>
<!DOCTYPE svg PUBLIC "-//W3C//DTD SVG 20010904//EN"
 "http://www.w3.org/TR/2001/REC-SVG-20010904/DTD/svg10.dtd">
<svg version="1.0" xmlns="http://www.w3.org/2000/svg"
 width="900.000000pt" height="501.000000pt" viewBox="0 0 900.000000 501.000000"
 preserveAspectRatio="xMidYMid meet">
<metadata>
Created by potrace 1.10, written by Peter Selinger 2001-2011
</metadata>
<g transform="translate(0.000000,501.000000) scale(0.100000,-0.100000)"
fill="#ecbc36" stroke="none">
<path d="M3733 2852 c-22 -16 -23 -23 -20 -147 2 -118 4 -133 25 -163 21 -29
29 -32 72 -32 44 0 52 3 76 35 27 36 50 38 41 4 -6 -21 19 -52 37 -46 12 4 29
256 20 290 -6 21 -37 22 -54 2 -12 -14 -8 -107 7 -175 5 -22 2 -20 -26 14 -17
21 -31 42 -31 45 0 12 -67 31 -85 25 -16 -7 -18 -2 -13 60 5 53 2 71 -11 86
-15 19 -17 19 -38 2z m110 -217 c11 -8 17 -23 15 -37 -4 -33 -62 -39 -78 -8
-9 18 -8 25 6 41 20 22 32 23 57 4z"/>
<path d="M4642 2713 c3 -54 4 -104 1 -110 -7 -20 -30 -15 -36 7 -4 15 -14 20
-41 20 -25 0 -36 4 -36 15 0 11 11 15 35 15 39 0 55 21 35 45 -17 20 -77 11
-107 -16 -44 -43 -16 -99 50 -99 44 0 28 -24 -19 -28 -21 -2 -44 -8 -51 -14
-38 -31 14 -55 92 -44 33 5 44 12 49 29 l7 22 16 -22 c8 -13 26 -23 39 -23 21
0 23 5 26 63 3 57 5 62 27 65 34 5 46 -13 46 -71 0 -49 2 -52 25 -52 23 0 25
4 27 49 4 88 -38 143 -101 134 -19 -3 -21 3 -24 55 -3 56 -3 57 -34 57 l-31 0
5 -97z"/>
<path d="M4277 2700 c-63 -39 -76 -105 -31 -159 21 -26 33 -31 67 -31 68 1
122 64 99 115 -11 23 -9 27 14 37 17 8 24 18 22 32 -3 19 -10 21 -73 22 -50 1
-78 -3 -98 -16z m77 -69 c27 -30 5 -63 -37 -59 -25 2 -33 8 -35 27 -3 15 3 30
14 38 24 18 38 16 58 -6z"/>
<path d="M4896 2698 c-85 -64 -56 -188 45 -188 57 0 89 36 89 100 0 49 -10 67
-50 94 -32 21 -49 20 -84 -6z m74 -63 c7 -8 10 -25 6 -40 -5 -20 -13 -25 -36
-25 -23 0 -31 5 -36 25 -7 29 10 55 36 55 10 0 23 -7 30 -15z"/>
<path d="M5098 2686 l-34 -33 -2 -147 -2 -146 30 0 30 0 0 75 0 75 38 0 c41 1
69 20 91 62 22 42 1 100 -45 127 -48 29 -65 27 -106 -13z m88 -61 c9 -38 -2
-55 -36 -55 -16 0 -30 4 -30 9 0 5 -3 16 -6 24 -7 18 21 47 47 47 12 0 21 -9
25 -25z"/>
<path d="M4041 2681 c-30 -28 -36 -47 -31 -101 6 -68 111 -98 157 -43 25 28
31 89 13 124 -12 22 -60 49 -88 49 -11 0 -34 -13 -51 -29z m91 -55 c20 -29 -1
-59 -38 -54 -32 3 -45 38 -23 64 13 15 48 10 61 -10z"/>
<path d="M4216 2471 c-15 -23 22 -74 73 -101 19 -10 30 -9 62 5 39 18 85 78
74 96 -12 18 -46 8 -73 -22 -32 -36 -61 -34 -77 3 -10 24 -49 36 -59 19z"/>
<path d="M4614 2302 c-16 -10 -34 -48 -34 -69 0 -10 11 -26 25 -35 21 -16 25
-16 39 -2 20 19 20 28 1 44 -10 9 -12 17 -5 30 11 20 -8 44 -26 32z"/>
<path d="M3935 2278 c-13 -62 -13 -62 45 -71 67 -10 116 -2 124 20 5 13 9 14
19 3 9 -10 9 -13 0 -17 -7 -3 -13 -12 -13 -21 1 -15 2 -15 15 1 10 14 18 16
31 9 9 -5 25 -7 34 -5 10 3 21 0 24 -6 9 -14 36 -14 36 0 0 6 -7 17 -15 25 -8
9 -15 28 -15 43 0 37 -10 44 -31 25 -12 -11 -41 -17 -94 -18 -65 -3 -77 0 -86
16 -15 27 -67 25 -74 -4z"/>
<path d="M4307 2294 c-10 -11 -9 -52 3 -59 6 -3 7 -17 4 -31 -7 -28 9 -32 34
-8 20 21 115 13 142 -11 15 -13 23 -14 40 -5 17 9 20 19 18 48 l-3 37 -73 0
c-44 0 -76 5 -80 12 -9 14 -74 27 -85 17z"/>
<path d="M4706 2282 c-7 -22 16 -94 31 -99 6 -2 24 10 41 27 36 36 38 36 45 9
5 -19 11 -21 42 -15 27 5 37 3 41 -9 7 -16 54 -21 54 -5 0 6 6 10 14 10 7 0
19 6 25 13 8 11 5 19 -13 36 -21 20 -32 22 -105 19 -70 -2 -84 0 -92 15 -14
24 -76 23 -83 -1z"/>
<path d="M3744 757 c-3 -8 -3 -56 -2 -108 3 -93 3 -94 28 -94 22 0 25 5 28 43
3 45 15 54 32 22 14 -26 26 -25 55 5 27 31 39 20 30 -29 -7 -35 3 -50 27 -41
10 4 13 31 13 107 0 85 -3 103 -16 106 -9 2 -23 -12 -35 -35 -22 -45 -44 -73
-55 -73 -5 0 -20 25 -34 55 -19 39 -32 55 -46 55 -11 0 -22 -6 -25 -13z"/>
<path d="M4154 724 c3 -26 6 -73 6 -104 l0 -57 40 -6 c50 -6 80 1 80 19 0 8 7
17 15 20 41 16 -16 104 -67 104 -25 0 -28 3 -28 35 0 31 -3 35 -26 35 -26 0
-27 -1 -20 -46z m95 -78 c9 -11 10 -20 1 -35 -13 -25 -23 -26 -44 -5 -21 20
-20 31 2 43 23 14 28 13 41 -3z"/>
<path d="M4323 754 c-3 -9 -2 -24 4 -33 6 -10 7 -41 2 -85 -5 -38 -8 -71 -6
-72 1 -1 11 -4 22 -6 19 -3 20 3 21 105 2 99 0 107 -17 107 -11 0 -22 -7 -26
-16z"/>
<path d="M4400 667 c0 -107 3 -119 25 -111 9 4 14 28 14 72 1 37 3 83 4 102 2
29 -2 36 -20 38 -23 3 -23 2 -23 -101z"/>
<path d="M5000 665 l0 -105 29 0 29 0 1 105 1 105 -30 0 -30 0 0 -105z"/>
<path d="M4009 681 c-36 -36 -37 -68 -4 -104 31 -32 63 -34 99 -6 36 29 36 79
-1 114 -36 33 -58 32 -94 -4z m81 -51 c0 -5 -7 -16 -16 -25 -12 -12 -19 -13
-30 -4 -17 14 -18 46 -1 52 15 5 47 -10 47 -23z"/>
<path d="M4489 678 c-16 -18 -29 -42 -29 -53 1 -50 74 -90 119 -65 18 9 20 14
10 26 -6 8 -23 13 -38 12 -18 -2 -26 2 -26 12 0 8 7 13 15 11 8 -2 26 -5 40
-5 38 -1 40 40 3 70 -38 32 -59 30 -94 -8z"/>
<path d="M4698 687 c-62 -51 -18 -146 62 -133 43 7 60 29 60 76 0 29 -6 41
-30 58 -37 28 -58 27 -92 -1z m82 -57 c0 -5 -7 -16 -16 -25 -12 -12 -19 -13
-30 -4 -29 24 -5 66 28 48 10 -5 18 -14 18 -19z"/>
<path d="M4853 695 c-2 -7 -3 -41 -1 -76 2 -49 7 -64 18 -64 11 0 16 13 18 48
3 42 5 47 28 47 22 0 24 -4 24 -44 0 -48 8 -60 29 -46 18 11 8 108 -14 129
-18 19 -95 23 -102 6z"/>
<path d="M5092 698 c-13 -13 -5 -64 16 -96 14 -22 14 -27 -3 -58 -13 -25 -15
-38 -8 -45 13 -13 53 -3 53 13 0 10 16 48 52 126 34 72 -4 104 -44 36 -21 -36
-37 -33 -38 8 0 22 -14 30 -28 16z"/>
</g>
</svg>
